<?xml version="1.0" encoding="UTF-8" standalone="no"?>
<!-- Created with Inkscape (http://www.inkscape.org/) -->

<svg
   width="120"
   height="120"
   viewBox="0 0 31.749999 31.75"
   version="1.1"
   id="svg1"
   xmlns="http://www.w3.org/2000/svg"
   xmlns:svg="http://www.w3.org/2000/svg">
  <defs
     id="defs1" />
  <g
     id="layer1"
     style="display:inline">
    <path
       id="path1"
       style="fill:#0000ff;stroke-width:0.263287"
       d="M 31.731238,15.969999 A 15.81343,15.86562 0 0 1 15.917809,31.835619 15.81343,15.86562 0 0 1 0.1043787,15.969999 15.81343,15.86562 0 0 1 15.917809,0.10437965 15.81343,15.86562 0 0 1 31.731238,15.969999 Z" />
    <path
       d="m 19.146017,11.634454 -0.646176,1.468144 q -1.272772,2.826178 -2.369314,5.634005 -0.52869,1.358033 -1.60565,4.734766 1.625232,-0.128463 4.366586,-0.642313 1.762299,-0.330332 2.13434,-0.330332 0.685339,0 0.685339,0.51385 0,0.60561 -0.763664,1.706717 -0.744081,1.082758 -1.683974,1.871885 -0.646177,0.568906 -1.918948,0.789128 -1.272772,0.220222 -3.974965,0.220222 -2.525962,0 -3.8966396,-0.146815 -0.019581,0 -0.6461765,-0.183518 -1.1161229,-0.440443 -1.1161229,-1.83518 0,-1.00935 0.6070142,-3.688714 0.6265954,-2.679364 1.8014618,-6.661706 2.66303,-8.8822745 4.014127,-10.9743804 0.430784,-0.7157206 1.07696,-1.1011085 0.665758,-0.4037397 1.801461,-0.6239614 1.096543,-0.2202218 2.525963,-0.2202218 1.331515,0 1.860205,0.3303326 0.548271,0.3119807 0.548271,1.1011084 0,0.7524241 -0.70492,2.8261784 -0.70492,2.0554023 -2.095178,5.2119137 z"
       id="text1"
       style="font-size:38.8229px;font-family:Forte;-inkscape-font-specification:Forte;fill:#ffffff;stroke-width:0.404404"
       aria-label="L" />
  </g>
</svg>
